<svg xmlns="http://www.w3.org/2000/svg" viewBox="0 0 100 100">
<g fill="currentColor">
<path d="M 54.78,49.54 L 98.00,50.00 L 54.78,50.46 Z"/>
<path d="M 53.78,51.32 L 86.96,65.31 L 53.60,51.73 Z"/>
<path d="M 53.70,53.05 L 83.94,83.94 L 53.05,53.70 Z"/>
<path d="M 51.73,53.60 L 65.31,86.96 L 51.32,53.78 Z"/>
<path d="M 50.46,54.78 L 50.00,98.00 L 49.54,54.78 Z"/>
<path d="M 48.68,53.78 L 34.69,86.96 L 48.27,53.60 Z"/>
<path d="M 46.95,53.70 L 16.06,83.94 L 46.30,53.05 Z"/>
<path d="M 46.40,51.73 L 13.04,65.31 L 46.22,51.32 Z"/>
<path d="M 45.22,50.46 L 2.00,50.00 L 45.22,49.54 Z"/>
<path d="M 46.22,48.68 L 13.04,34.69 L 46.40,48.27 Z"/>
<path d="M 46.30,46.95 L 16.06,16.06 L 46.95,46.30 Z"/>
<path d="M 48.27,46.40 L 34.69,13.04 L 48.68,46.22 Z"/>
<path d="M 49.54,45.22 L 50.00,2.00 L 50.46,45.22 Z"/>
<path d="M 51.32,46.22 L 65.31,13.04 L 51.73,46.40 Z"/>
<path d="M 53.05,46.30 L 83.94,16.06 L 53.70,46.95 Z"/>
<path d="M 53.60,48.27 L 86.96,34.69 L 53.78,48.68 Z"/>
</g>
</svg>